<svg width="28" height="28" viewBox="0 0 28 28" fill="none" xmlns="http://www.w3.org/2000/svg">
<path d="M28 14C28 21.7337 21.7314 28 14 28C6.26856 28 0 21.7337 0 14C0 6.27081 6.26856 0 14 0C21.7314 0 28 6.27081 28 14ZM14 16.8226C12.5658 16.8226 11.4032 17.9852 11.4032 19.4194C11.4032 20.8535 12.5658 22.0161 14 22.0161C15.4342 22.0161 16.5968 20.8535 16.5968 19.4194C16.5968 17.9852 15.4342 16.8226 14 16.8226ZM11.5346 7.48853L11.9533 15.166C11.9729 15.5252 12.27 15.8065 12.6298 15.8065H15.3702C15.73 15.8065 16.0271 15.5252 16.0467 15.166L16.4654 7.48853C16.4866 7.10048 16.1776 6.77419 15.789 6.77419H12.2109C11.8223 6.77419 11.5134 7.10048 11.5346 7.48853Z" fill="black"/>
</svg>
