<svg width="28" height="25" viewBox="0 0 28 25" fill="none" xmlns="http://www.w3.org/2000/svg">
<path d="M27.6849 21.3895C28.5821 22.9448 27.4559 24.8889 25.6638 24.8889H2.33597C0.540424 24.8889 -0.580646 22.9418 0.314868 21.3895L11.9789 1.16594C12.8766 -0.390055 15.125 -0.387236 16.0211 1.16594L27.6849 21.3895ZM14 17.2083C12.765 17.2083 11.7639 18.2095 11.7639 19.4444C11.7639 20.6794 12.765 21.6805 14 21.6805C15.235 21.6805 16.2361 20.6794 16.2361 19.4444C16.2361 18.2095 15.235 17.2083 14 17.2083ZM11.877 9.17068L12.2376 15.7818C12.2545 16.0911 12.5103 16.3333 12.8201 16.3333H15.1799C15.4897 16.3333 15.7455 16.0911 15.7624 15.7818L16.123 9.17068C16.1412 8.83652 15.8752 8.55555 15.5405 8.55555H12.4594C12.1248 8.55555 11.8588 8.83652 11.877 9.17068Z" fill="#FADCD9"/>
</svg>
