<svg width="28" height="28" viewBox="0 0 28 28" fill="none" xmlns="http://www.w3.org/2000/svg">
<path d="M28 14C28 21.732 21.732 28 14 28C6.26799 28 0 21.732 0 14C0 6.26799 6.26799 0 14 0C21.732 0 28 6.26799 28 14ZM12.3806 21.4129L22.7677 11.0258C23.1204 10.6731 23.1204 10.1012 22.7677 9.74846L21.4904 8.47113C21.1377 8.11836 20.5658 8.11836 20.213 8.47113L11.7419 16.9421L7.78699 12.9872C7.43428 12.6345 6.86237 12.6345 6.5096 12.9872L5.23227 14.2645C4.87956 14.6172 4.87956 15.1892 5.23227 15.5419L11.1032 21.4128C11.456 21.7656 12.0279 21.7656 12.3806 21.4129Z" fill="#077D55"/>
</svg>
